<svg width="29" height="27" viewBox="0 0 29 27" fill="none" xmlns="http://www.w3.org/2000/svg">
<path d="M20.9103 0C22.385 0 23.517 1.124 24.3557 2.33333L24.6397 2.76133L24.8997 3.188C24.9823 3.32756 25.0614 3.46444 25.137 3.59867C26.1863 5.47467 27.0997 7.924 27.7037 10.344C28.3037 12.7453 28.6357 15.2533 28.4237 17.2253C28.2103 19.2053 27.1903 21.3333 24.9103 21.3333C22.865 21.3333 21.253 20.24 19.9437 19.172L18.4637 17.9307C17.233 16.9227 15.8863 16 14.2437 16C12.601 16 11.253 16.9227 10.025 17.9307L8.54499 19.1707C7.23299 20.24 5.62099 21.3333 3.57699 21.3333C1.29566 21.3333 0.275655 19.2053 0.0636548 17.2253C-0.147012 15.252 0.183655 12.7453 0.783655 10.344C1.38765 7.924 2.30099 5.47467 3.35032 3.59867L3.58766 3.18667L3.84766 2.76133L4.13166 2.33333C4.97032 1.124 6.10232 0 7.57699 0C8.25699 0 8.93299 0.165333 9.59699 0.36L10.3877 0.602667C10.5183 0.642667 10.6481 0.680889 10.777 0.717333C11.9303 1.048 13.1103 1.33333 14.2437 1.33333C15.377 1.33333 16.557 1.048 17.7103 0.717333L18.8903 0.361333C19.5543 0.165333 20.2303 0 20.9103 0ZM9.57699 5.33333C8.69293 5.33333 7.84509 5.68452 7.21997 6.30964C6.59485 6.93476 6.24366 7.78261 6.24366 8.66667C6.24366 9.55072 6.59485 10.3986 7.21997 11.0237C7.84509 11.6488 8.69293 12 9.57699 12C10.461 12 11.3089 11.6488 11.934 11.0237C12.5591 10.3986 12.9103 9.55072 12.9103 8.66667C12.9103 7.78261 12.5591 6.93476 11.934 6.30964C11.3089 5.68452 10.461 5.33333 9.57699 5.33333ZM18.9103 5.33333C18.5567 5.33333 18.2176 5.47381 17.9675 5.72386C17.7175 5.97391 17.577 6.31304 17.577 6.66667V7.33333H16.9103C16.5567 7.33333 16.2176 7.47381 15.9675 7.72386C15.7175 7.97391 15.577 8.31304 15.577 8.66667C15.577 9.02029 15.7175 9.35943 15.9675 9.60948C16.2176 9.85952 16.5567 10 16.9103 10H17.577V10.6667C17.577 11.0203 17.7175 11.3594 17.9675 11.6095C18.2176 11.8595 18.5567 12 18.9103 12C19.2639 12 19.6031 11.8595 19.8531 11.6095C20.1032 11.3594 20.2437 11.0203 20.2437 10.6667V10H20.9103C21.2639 10 21.6031 9.85952 21.8531 9.60948C22.1032 9.35943 22.2437 9.02029 22.2437 8.66667C22.2437 8.31304 22.1032 7.97391 21.8531 7.72386C21.6031 7.47381 21.2639 7.33333 20.9103 7.33333H20.2437V6.66667C20.2437 6.31304 20.1032 5.97391 19.8531 5.72386C19.6031 5.47381 19.2639 5.33333 18.9103 5.33333ZM9.57699 8C9.7538 8 9.92337 8.07024 10.0484 8.19526C10.1734 8.32029 10.2437 8.48985 10.2437 8.66667C10.2437 8.84348 10.1734 9.01305 10.0484 9.13807C9.92337 9.2631 9.7538 9.33333 9.57699 9.33333C9.40018 9.33333 9.23061 9.2631 9.10558 9.13807C8.98056 9.01305 8.91032 8.84348 8.91032 8.66667C8.91032 8.48985 8.98056 8.32029 9.10558 8.19526C9.23061 8.07024 9.40018 8 9.57699 8Z" fill="#9F9F9F"/>
</svg>
