<svg width="27" height="25" viewBox="0 0 27 25" fill="none" xmlns="http://www.w3.org/2000/svg">
<path d="M19.6034 0C20.9859 0 22.0472 1.05375 22.8334 2.1875L23.0997 2.58875L23.3434 2.98875C23.4209 3.11958 23.4951 3.24792 23.5659 3.37375C24.5497 5.1325 25.4059 7.42875 25.9722 9.6975C26.5347 11.9488 26.8459 14.3 26.6472 16.1488C26.4472 18.005 25.4909 20 23.3534 20C21.4359 20 19.9247 18.975 18.6972 17.9738L17.3097 16.81C16.1559 15.865 14.8934 15 13.3534 15C11.8134 15 10.5497 15.865 9.39843 16.81L8.01093 17.9725C6.78093 18.975 5.26968 20 3.35343 20C1.21468 20 0.258426 18.005 0.0596763 16.1488C-0.137824 14.2988 0.172176 11.9488 0.734676 9.6975C1.30093 7.42875 2.15718 5.1325 3.14093 3.37375L3.36343 2.9875L3.60718 2.58875L3.87343 2.1875C4.65968 1.05375 5.72093 0 7.10343 0C7.74093 0 8.37468 0.155 8.99718 0.3375L9.73843 0.565C9.86093 0.6025 9.98259 0.638333 10.1034 0.6725C11.1847 0.9825 12.2909 1.25 13.3534 1.25C14.4159 1.25 15.5222 0.9825 16.6034 0.6725L17.7097 0.33875C18.3322 0.155 18.9659 0 19.6034 0ZM8.97843 5C8.14962 5 7.35477 5.32924 6.76872 5.91529C6.18267 6.50134 5.85343 7.2962 5.85343 8.125C5.85343 8.9538 6.18267 9.74866 6.76872 10.3347C7.35477 10.9208 8.14962 11.25 8.97843 11.25C9.80723 11.25 10.6021 10.9208 11.1881 10.3347C11.7742 9.74866 12.1034 8.9538 12.1034 8.125C12.1034 7.2962 11.7742 6.50134 11.1881 5.91529C10.6021 5.32924 9.80723 5 8.97843 5ZM17.7284 5C17.3969 5 17.079 5.1317 16.8445 5.36612C16.6101 5.60054 16.4784 5.91848 16.4784 6.25V6.875H15.8534C15.5219 6.875 15.204 7.0067 14.9695 7.24112C14.7351 7.47554 14.6034 7.79348 14.6034 8.125C14.6034 8.45652 14.7351 8.77446 14.9695 9.00888C15.204 9.2433 15.5219 9.375 15.8534 9.375H16.4784V10C16.4784 10.3315 16.6101 10.6495 16.8445 10.8839C17.079 11.1183 17.3969 11.25 17.7284 11.25C18.0599 11.25 18.3779 11.1183 18.6123 10.8839C18.8467 10.6495 18.9784 10.3315 18.9784 10V9.375H19.6034C19.9349 9.375 20.2529 9.2433 20.4873 9.00888C20.7217 8.77446 20.8534 8.45652 20.8534 8.125C20.8534 7.79348 20.7217 7.47554 20.4873 7.24112C20.2529 7.0067 19.9349 6.875 19.6034 6.875H18.9784V6.25C18.9784 5.91848 18.8467 5.60054 18.6123 5.36612C18.3779 5.1317 18.0599 5 17.7284 5ZM8.97843 7.5C9.14419 7.5 9.30316 7.56585 9.42037 7.68306C9.53758 7.80027 9.60343 7.95924 9.60343 8.125C9.60343 8.29076 9.53758 8.44973 9.42037 8.56694C9.30316 8.68415 9.14419 8.75 8.97843 8.75C8.81267 8.75 8.65369 8.68415 8.53648 8.56694C8.41927 8.44973 8.35343 8.29076 8.35343 8.125C8.35343 7.95924 8.41927 7.80027 8.53648 7.68306C8.65369 7.56585 8.81267 7.5 8.97843 7.5Z" fill="#86CE11"/>
</svg>
