<svg width="30" height="30" viewBox="0 0 30 30" fill="none" xmlns="http://www.w3.org/2000/svg">
<path d="M21.25 2.5H16.25V7.57375C18.0391 7.7706 19.7543 8.39622 21.25 9.3975V2.5ZM13.75 2.5H8.75V9.3975C10.2457 8.39622 11.9609 7.7706 13.75 7.57375V2.5ZM15 27.5C17.3206 27.5 19.5462 26.5781 21.1872 24.9372C22.8281 23.2962 23.75 21.0706 23.75 18.75C23.75 16.4294 22.8281 14.2038 21.1872 12.5628C19.5462 10.9219 17.3206 10 15 10C12.6794 10 10.4538 10.9219 8.81281 12.5628C7.17187 14.2038 6.25 16.4294 6.25 18.75C6.25 21.0706 7.17187 23.2962 8.81281 24.9372C10.4538 26.5781 12.6794 27.5 15 27.5ZM13.4687 16.8512L15 13.75L16.5312 16.8512L19.9537 17.3475L17.4775 19.7625L18.0625 23.1712L15 21.5625L11.9387 23.1712L12.5237 19.7625L10.0475 17.3475L13.4687 16.8512Z" fill="#FF4D00"/>
</svg>
