<svg width="16" height="16" viewBox="0 0 16 16" fill="none" xmlns="http://www.w3.org/2000/svg">
<g clip-path="url(#clip0_32_323)">
<path d="M8 16C12.4286 16 16 12.4286 16 8C16 3.57143 12.4286 0 8 0C3.57143 0 0 3.57143 0 8C0 12.4286 3.57143 16 8 16Z" fill="#0098EA"/>
<path d="M10.7428 4.45714H5.2571C4.2571 4.45714 3.62853 5.54286 4.11424 6.42857L7.48567 12.2857C7.71424 12.6571 8.2571 12.6571 8.48567 12.2857L11.8571 6.42857C12.3714 5.54286 11.7428 4.45714 10.7428 4.45714ZM7.51424 10.5143L6.77139 9.08571L4.99996 5.91428C4.88567 5.71428 5.02853 5.45714 5.28567 5.45714H7.51424V10.5143ZM11 5.91428L9.22853 9.08571L8.48567 10.5143V5.45714H10.7142C10.9714 5.45714 11.1142 5.71428 11 5.91428Z" fill="white"/>
</g>
<defs>
<clipPath id="clip0_32_323">
<rect width="16" height="16" fill="white"/>
</clipPath>
</defs>
</svg>
